<svg width="15" height="19" viewBox="0 0 15 19" fill="none" xmlns="http://www.w3.org/2000/svg">
<path d="M14.1401 2.75H10.7651V2.375C10.7651 1.34113 9.92401 0.5 8.89014 0.5H6.64014C5.60626 0.5 4.76514 1.34113 4.76514 2.375V2.75H1.39014C0.976137 2.75 0.640137 3.086 0.640137 3.5V4.625C0.640137 5.039 0.976137 5.375 1.39014 5.375H14.1401C14.5541 5.375 14.8901 5.039 14.8901 4.625V3.5C14.8901 3.086 14.5541 2.75 14.1401 2.75ZM6.26514 2.375C6.26514 2.16838 6.43351 2 6.64014 2H8.89014C9.09676 2 9.26514 2.16838 9.26514 2.375V2.75H6.26514V2.375Z" fill="#FF0000"/>
<path d="M13.8703 6.37063C13.7282 6.21425 13.5264 6.125 13.3153 6.125H2.2153C2.00418 6.125 1.80242 6.21425 1.6603 6.37063C1.51817 6.527 1.4488 6.73625 1.46867 6.94662L2.39042 16.5796C2.49505 17.6746 3.45842 18.5004 4.63142 18.5004H10.8992C12.0718 18.5004 13.0355 17.6746 13.1402 16.5796L14.0619 6.94662C14.0822 6.73625 14.0124 6.527 13.8703 6.37063ZM6.01255 16.6235C5.99643 16.6242 5.98067 16.625 5.96455 16.625C5.57192 16.625 5.24193 16.3197 5.2168 15.9222L4.7668 8.79725C4.74092 8.384 5.0548 8.02775 5.46805 8.0015C5.88243 7.979 6.23793 8.2895 6.2638 8.70275L6.7138 15.8277C6.73967 16.241 6.4258 16.5972 6.01255 16.6235ZM10.3138 15.9222C10.2887 16.3197 9.95867 16.625 9.56605 16.625C9.5503 16.625 9.53417 16.6246 9.51805 16.6235C9.10442 16.5972 8.79093 16.241 8.8168 15.8277L9.2668 8.70275C9.29305 8.28912 9.64742 7.97825 10.0625 8.0015C10.4762 8.02775 10.7897 8.384 10.7638 8.79725L10.3138 15.9222Z" fill="#FF0000"/>
</svg>
