<svg width="21" height="20" viewBox="0 0 21 20" fill="none" xmlns="http://www.w3.org/2000/svg">
<path d="M1.05562 0.841927L19.2307 0.841927C19.4985 0.841927 19.7553 0.948308 19.9447 1.13767C20.134 1.32703 20.2404 1.58386 20.2404 1.85165V18.0073C20.2404 18.2751 20.134 18.5319 19.9447 18.7213C19.7553 18.9106 19.4985 19.017 19.2307 19.017H1.05562C0.787829 19.017 0.531001 18.9106 0.34164 18.7213C0.15228 18.5319 0.0458984 18.2751 0.0458984 18.0073L0.0458984 1.85165C0.0458984 1.58386 0.15228 1.32703 0.34164 1.13767C0.531001 0.948308 0.787829 0.841927 1.05562 0.841927V0.841927ZM18.221 5.12115L10.2159 12.2902L2.06535 5.09893L2.06535 16.9975H18.221V5.12115ZM2.58132 2.86138L10.2048 9.58818L17.7181 2.86138L2.58132 2.86138Z" fill="white"/>
</svg>
