<svg width="128" height="49" viewBox="0 0 128 49" fill="none" xmlns="http://www.w3.org/2000/svg">
<path d="M25.3581 48.727L25.262 47.4582C24.9515 47.489 24.6431 47.5129 24.3394 47.5307C24.6654 47.9347 25.005 48.3335 25.3581 48.727Z" fill="#A70000"/>
<path d="M8.38916 42.8213L9.25908 41.7624C8.99797 41.5431 8.74295 41.3208 8.49401 41.0955C8.44215 41.6646 8.4072 42.2399 8.38916 42.8213Z" fill="#A70000"/>
<path d="M0.260742 26.6438L1.61365 26.4953C1.57712 26.1533 1.54691 25.8143 1.52301 25.4782C1.09459 25.8503 0.673831 26.2388 0.260742 26.6438Z" fill="#A70000"/>
<path d="M5.55225 9.30549L6.62713 10.1489C6.83593 9.87527 7.04744 9.61033 7.26165 9.35405C6.69523 9.32122 6.12543 9.30503 5.55225 9.30549Z" fill="#A70000"/>
<path d="M1.54744 25.4571C6.07968 21.5302 11.4758 19.3906 16.583 18.5205C17.4286 18.376 18.2642 18.2658 19.0899 18.1902C20.0221 18.1033 20.9373 18.0581 21.8282 18.0534C22.6902 17.7646 23.6001 17.651 24.5057 17.7192C25.4112 17.7874 26.2945 18.036 27.1046 18.4508C26.4173 17.7791 25.6786 17.119 24.8926 16.4801C24.2479 15.9555 23.5708 15.4445 22.8632 14.9534C18.5988 11.9841 13.2494 9.72349 7.29122 9.35754H7.25942C7.04476 9.61519 6.83326 9.88013 6.62491 10.1524C3.25278 14.53 0.604458 20.5213 0.258789 26.6452C0.671427 26.2403 1.09241 25.8526 1.52173 25.4824L1.54744 25.4571Z" fill="url(#paint0_linear_434_967)"/>
<path d="M21.2822 0.572815L21.4723 1.93604C21.8092 1.88816 22.1434 1.84667 22.4748 1.81155C22.0933 1.38975 21.6958 0.976836 21.2822 0.572815Z" fill="#A70000"/>
<path d="M7.29152 9.35751C13.2477 9.72345 18.5971 11.9841 22.8642 14.9513C23.5704 15.4425 24.2476 15.9534 24.8936 16.478C25.6796 17.1169 26.4183 17.7777 27.1056 18.4487C28.6781 19.2567 29.8843 20.6438 30.4757 22.3243C30.4446 21.3523 30.3674 20.3509 30.2423 19.331C30.1395 18.5007 30.0049 17.658 29.8364 16.8084C28.8129 11.6742 26.5218 6.28836 22.4982 1.83478L22.4766 1.81152C22.1451 1.84618 21.811 1.88768 21.4741 1.93601C16.0401 2.70826 10.0163 5.15086 5.55371 9.30621C6.1287 9.30621 6.6985 9.32308 7.26311 9.35683L7.29152 9.35751Z" fill="url(#paint1_linear_434_967)"/>
<path d="M38.59 5.36084L37.7891 6.47441C38.0637 6.67687 38.3323 6.88208 38.5947 7.09001C38.6105 6.52092 38.6089 5.94453 38.59 5.36084Z" fill="#A70000"/>
<path d="M22.4752 1.81082L22.4969 1.83408C26.5238 6.28766 28.8116 11.6735 29.8351 16.8077C30.0049 17.6573 30.1395 18.5 30.2409 19.3303C30.3661 20.3502 30.4439 21.3516 30.4743 22.3236C31.0451 23.9529 30.9968 25.7385 30.339 27.3339C30.9478 26.6499 31.5451 25.9167 32.1222 25.1451C32.6182 24.4761 33.0994 23.7766 33.5657 23.0466C36.3622 18.6388 38.4247 13.1599 38.5958 7.12831C38.5958 7.11736 38.5958 7.1071 38.5958 7.09616C38.3334 6.88822 38.0648 6.68302 37.7902 6.48055C33.3553 3.21235 27.3477 0.729402 21.2847 0.5755C21.6969 0.976786 22.0937 1.38856 22.4752 1.81082Z" fill="url(#paint2_linear_434_967)"/>
<path d="M46.549 22.2019C46.9413 21.8111 47.3246 21.4059 47.6989 20.9864L46.3853 21.2176C46.4421 21.5514 46.493 21.8829 46.5381 22.2121L46.549 22.2019Z" fill="#A70000"/>
<path d="M38.595 7.09275C38.595 7.1037 38.595 7.11396 38.595 7.1249C38.4238 13.1565 36.3627 18.6354 33.5648 23.0432C33.1022 23.7728 32.621 24.4723 32.1213 25.1417C31.5443 25.9167 30.947 26.6465 30.3382 27.3305C29.6796 28.9146 28.4661 30.1972 26.9302 30.9325C27.7737 30.8641 28.6362 30.7595 29.5115 30.6165C30.3287 30.4838 31.1551 30.3169 31.9907 30.1158C37.0276 28.8983 42.2729 26.4488 46.5271 22.2203L46.5392 22.2087C46.4942 21.879 46.4432 21.5475 46.3864 21.2141C45.4481 15.7503 42.8411 9.7385 38.5902 5.36084C38.6101 5.94407 38.6117 6.52138 38.595 7.09275Z" fill="url(#paint3_linear_434_967)"/>
<path d="M8.49664 41.0661C9.05607 34.9853 11.513 29.5953 14.6361 25.3538C14.9884 24.8754 15.3491 24.4119 15.7185 23.9632C16.3902 23.1424 17.0842 22.3749 17.7905 21.6608C18.1896 20.8162 18.7529 20.0616 19.4467 19.4419C20.1406 18.8222 20.9507 18.3502 21.8289 18.054C20.938 18.0609 20.0228 18.106 19.0906 18.1908C18.2662 18.2674 17.4306 18.3776 16.5837 18.5212C11.4764 19.3913 6.07899 21.5308 1.54809 25.4577L1.52441 25.4789C1.54786 25.8146 1.57808 26.1536 1.61506 26.4961C2.20425 32.0126 4.42505 38.1789 8.38976 42.822C8.40734 42.2406 8.4423 41.6653 8.49461 41.0962C8.49461 41.0846 8.49596 41.0743 8.49664 41.0661Z" fill="url(#paint4_linear_434_967)"/>
<path d="M24.2264 47.3863C20.4443 42.6243 18.5009 37.0236 17.8264 31.78C17.7502 31.1872 17.69 30.6008 17.6458 30.0207C17.5687 29.0125 17.5383 28.0234 17.5484 27.0617C17.2309 26.1901 17.0887 25.2631 17.1302 24.3352C17.1717 23.4073 17.396 22.4971 17.7899 21.658C17.0837 22.3721 16.3896 23.1403 15.7179 23.9604C15.3499 24.4091 14.9892 24.8726 14.6356 25.351C11.5124 29.5918 9.05552 34.9825 8.49609 41.0634C8.49609 41.0743 8.49609 41.0846 8.49609 41.0955C8.74413 41.3199 8.99915 41.5422 9.26116 41.7624C13.4795 45.3104 19.3173 48.1784 25.3608 48.7243C25.0068 48.3321 24.6672 47.9333 24.3421 47.5279C24.3008 47.4807 24.2636 47.4335 24.2264 47.3863Z" fill="url(#paint5_linear_434_967)"/>
<path d="M41.8048 38.6878C40.0351 38.6918 38.2688 38.5304 36.5285 38.2056L36.4148 38.1851L36.2045 38.1433C32.4352 37.4053 28.9664 35.9627 25.9629 34.1658C25.2256 33.724 24.5171 33.2625 23.8375 32.7814C23.3904 32.4661 22.9581 32.1282 22.5387 31.7855C22.32 31.6136 22.1053 31.4405 21.8947 31.2663C20.9036 30.943 19.9978 30.3966 19.2454 29.6684C18.4931 28.9401 17.9139 28.0489 17.5512 27.0617C17.5411 28.0234 17.5715 29.0125 17.6486 30.0207C17.6937 30.6017 17.7539 31.1881 17.8292 31.78C18.5057 37.0236 20.4471 42.6243 24.2292 47.3864C24.2664 47.4335 24.3036 47.4807 24.3421 47.5279C24.6459 47.5102 24.9543 47.4862 25.2648 47.4554C31.3225 46.8631 38.5984 43.8678 43.5481 38.6276C42.9744 38.6659 42.4046 38.686 41.8387 38.6878H41.8048Z" fill="url(#paint6_linear_434_967)"/>
<path d="M41.9036 38.6796H41.8414L41.8359 38.6878C42.4015 38.6851 42.9713 38.665 43.5453 38.6276L42.4583 37.88C42.2761 38.1522 42.0912 38.4188 41.9036 38.6796Z" fill="#A70000"/>
<path d="M46.5408 22.2272L46.5185 22.249C42.246 26.4619 36.9947 28.9469 31.9531 30.1459C31.119 30.3443 30.2903 30.5078 29.4725 30.6377C28.606 30.7745 27.7523 30.8758 26.9175 30.9414C25.3537 31.6815 23.5723 31.8013 21.9253 31.2773C22.1255 31.4469 22.3285 31.6163 22.5341 31.7855C22.94 32.1047 23.3576 32.4171 23.7869 32.7226C24.4633 33.2041 25.17 33.6681 25.9069 34.1145C28.9198 35.9333 32.4076 37.3978 36.1998 38.1434L36.4102 38.1851L36.5239 38.2056C38.2773 38.5301 40.0569 38.6888 41.8395 38.6796C42.0352 38.4101 42.2277 38.1347 42.4171 37.8533L42.4564 37.88L42.4821 37.8431C45.5532 33.2452 47.7929 27.0857 47.7287 20.9481L47.6976 20.9829L47.7246 20.9782C47.3404 21.4114 46.9458 21.8277 46.5408 22.2272Z" fill="url(#paint7_linear_434_967)"/>
<path d="M46.5487 22.2018L46.5386 22.2121V22.2271C46.9444 21.8272 47.3397 21.412 47.7244 20.9816L47.6973 20.9864C47.3221 21.4063 46.9393 21.8115 46.5487 22.2018Z" fill="#A70000"/>
<path d="M46.5487 22.2018L46.5386 22.2121V22.2271C46.9444 21.8272 47.3397 21.412 47.7244 20.9816L47.6973 20.9864C47.3221 21.4063 46.9393 21.8115 46.5487 22.2018Z" fill="url(#paint8_linear_434_967)"/>
<path d="M29.4725 30.6377C30.2903 30.5077 31.1189 30.3442 31.953 30.1459C36.9946 28.9468 42.246 26.4618 46.5184 22.249L46.5408 22.2271V22.212L46.5286 22.2237C42.269 26.4522 37.0271 28.9016 31.9902 30.1219C31.1559 30.3235 30.3295 30.4904 29.511 30.6226C28.6357 30.7656 27.7732 30.8695 26.9297 30.9386L26.9175 30.9441C27.7522 30.8743 28.6059 30.7751 29.4725 30.6377Z" fill="url(#paint9_linear_434_967)"/>
<path d="M29.4725 30.6377C30.2903 30.5077 31.1189 30.3442 31.953 30.1459C36.9946 28.9468 42.246 26.4618 46.5184 22.249L46.5408 22.2271V22.212L46.5286 22.2237C42.269 26.4522 37.0271 28.9016 31.9902 30.1219C31.1559 30.3235 30.3295 30.4904 29.511 30.6226C28.6357 30.7656 27.7732 30.8695 26.9297 30.9386L26.9175 30.9441C27.7522 30.8743 28.6059 30.7751 29.4725 30.6377Z" fill="url(#paint10_linear_434_967)"/>
<path d="M23.7889 32.7212C23.3583 32.4148 22.9407 32.1024 22.5361 31.7841C22.9549 32.1261 23.3878 32.4647 23.8349 32.78C24.5114 33.2593 25.2199 33.7208 25.9603 34.1645C28.9618 35.9614 32.4327 37.4039 36.2019 38.142C32.4097 37.3944 28.9219 35.9319 25.9089 34.1132C25.173 33.6695 24.4663 33.2055 23.7889 32.7212Z" fill="url(#paint11_linear_434_967)"/>
<path d="M23.7889 32.7212C23.3583 32.4148 22.9407 32.1024 22.5361 31.7841C22.9549 32.1261 23.3878 32.4647 23.8349 32.78C24.5114 33.2593 25.2199 33.7208 25.9603 34.1645C28.9618 35.9614 32.4327 37.4039 36.2019 38.142C32.4097 37.3944 28.9219 35.9319 25.9089 34.1132C25.173 33.6695 24.4663 33.2055 23.7889 32.7212Z" fill="url(#paint12_linear_434_967)"/>
<path d="M41.8413 38.6797H41.9035C42.0916 38.4188 42.2765 38.1523 42.4582 37.8801L42.419 37.8534C42.2296 38.1347 42.037 38.4102 41.8413 38.6797Z" fill="#A70000"/>
<path d="M41.8413 38.6797H41.9035C42.0916 38.4188 42.2765 38.1523 42.4582 37.8801L42.419 37.8534C42.2296 38.1347 42.037 38.4102 41.8413 38.6797Z" fill="url(#paint13_linear_434_967)"/>
<path d="M65.2177 12.0759V22.3798H75.094V12.0759H81.0745V38.8891H75.094V27.6713H65.2177V38.8891H59.1973V12.0759H65.2177Z" fill="#FF0000"/>
<path d="M84.7319 38.8898V12.0766H91.7353L97.243 21.9031C98.8832 24.8673 100.329 27.9371 101.572 31.0927H101.691C101.297 27.5523 101.179 23.9319 101.179 19.914V12.0759H106.687V38.8891H100.392L94.7266 28.5455C93.1524 25.6809 91.4214 22.2198 90.1267 19.0768L90.0083 19.1171C90.1659 22.6575 90.2444 26.436 90.2444 30.8137V38.8898H84.7319Z" fill="#FF0000"/>
<path d="M110.306 12.0759H116.326V33.7973H123.577L127.749 38.8898H110.306V12.0759Z" fill="#FF0000"/>
<defs>
<linearGradient id="paint0_linear_434_967" x1="8.30319" y1="32.8731" x2="17.899" y2="11.1958" gradientUnits="userSpaceOnUse">
<stop stop-color="#FF0000"/>
<stop offset="0.53" stop-color="#FF0000"/>
<stop offset="0.62" stop-color="#FB0000"/>
<stop offset="0.71" stop-color="#F00000"/>
<stop offset="0.79" stop-color="#DC0000"/>
<stop offset="0.88" stop-color="#C10000"/>
<stop offset="0.97" stop-color="#9F0000"/>
<stop offset="1" stop-color="#8F0000"/>
</linearGradient>
<linearGradient id="paint1_linear_434_967" x1="-5.88515" y1="11.5976" x2="32.7129" y2="12.1455" gradientUnits="userSpaceOnUse">
<stop offset="0.39" stop-color="#FF0000"/>
<stop offset="0.64" stop-color="#FF0000"/>
<stop offset="0.69" stop-color="#F90000"/>
<stop offset="0.77" stop-color="#E90000"/>
<stop offset="0.85" stop-color="#CE0000"/>
<stop offset="0.95" stop-color="#A80000"/>
<stop offset="1" stop-color="#8F0000"/>
</linearGradient>
<linearGradient id="paint2_linear_434_967" x1="12.2161" y1="-7.30155" x2="38.2898" y2="20.795" gradientUnits="userSpaceOnUse">
<stop stop-color="#FF0000"/>
<stop offset="0.58" stop-color="#FF0000"/>
<stop offset="0.66" stop-color="#FB0000"/>
<stop offset="0.74" stop-color="#EF0000"/>
<stop offset="0.82" stop-color="#DC0000"/>
<stop offset="0.9" stop-color="#C00000"/>
<stop offset="0.97" stop-color="#9D0000"/>
<stop offset="1" stop-color="#8F0000"/>
</linearGradient>
<linearGradient id="paint3_linear_434_967" x1="30.3706" y1="-3.83019" x2="37.8221" y2="30.777" gradientUnits="userSpaceOnUse">
<stop stop-color="#FF0000"/>
<stop offset="0.7" stop-color="#FF0000"/>
<stop offset="0.75" stop-color="#FA0000"/>
<stop offset="0.81" stop-color="#EB0000"/>
<stop offset="0.88" stop-color="#D20000"/>
<stop offset="0.94" stop-color="#B00000"/>
<stop offset="1" stop-color="#8F0000"/>
</linearGradient>
<linearGradient id="paint4_linear_434_967" x1="16.1974" y1="49.3495" x2="10.819" y2="17.7158" gradientUnits="userSpaceOnUse">
<stop stop-color="#FF0000"/>
<stop offset="0.66" stop-color="#FF0000"/>
<stop offset="0.73" stop-color="#FB0000"/>
<stop offset="0.79" stop-color="#F00000"/>
<stop offset="0.85" stop-color="#DC0000"/>
<stop offset="0.92" stop-color="#C10000"/>
<stop offset="0.98" stop-color="#9F0000"/>
<stop offset="1" stop-color="#8F0000"/>
</linearGradient>
<linearGradient id="paint5_linear_434_967" x1="34.3008" y1="44.2228" x2="11.0858" y2="30.815" gradientUnits="userSpaceOnUse">
<stop stop-color="#FF0000"/>
<stop offset="0.66" stop-color="#FF0000"/>
<stop offset="0.73" stop-color="#FB0000"/>
<stop offset="0.79" stop-color="#F00000"/>
<stop offset="0.85" stop-color="#DC0000"/>
<stop offset="0.92" stop-color="#C10000"/>
<stop offset="0.98" stop-color="#9F0000"/>
<stop offset="1" stop-color="#8F0000"/>
</linearGradient>
<linearGradient id="paint6_linear_434_967" x1="52.8101" y1="33.6316" x2="17.2496" y2="37.6507" gradientUnits="userSpaceOnUse">
<stop stop-color="#FF0000"/>
<stop offset="0.66" stop-color="#FF0000"/>
<stop offset="0.73" stop-color="#FB0000"/>
<stop offset="0.79" stop-color="#F00000"/>
<stop offset="0.85" stop-color="#DC0000"/>
<stop offset="0.92" stop-color="#C10000"/>
<stop offset="0.98" stop-color="#9F0000"/>
<stop offset="1" stop-color="#8F0000"/>
</linearGradient>
<linearGradient id="paint7_linear_434_967" x1="47.8782" y1="9.7563" x2="29.3052" y2="38.5144" gradientUnits="userSpaceOnUse">
<stop stop-color="#FF0000"/>
<stop offset="0.66" stop-color="#FF0000"/>
<stop offset="0.73" stop-color="#FB0000"/>
<stop offset="0.79" stop-color="#F00000"/>
<stop offset="0.85" stop-color="#DC0000"/>
<stop offset="0.92" stop-color="#C10000"/>
<stop offset="0.98" stop-color="#9F0000"/>
<stop offset="1" stop-color="#8F0000"/>
</linearGradient>
<linearGradient id="paint8_linear_434_967" x1="52.6605" y1="12.8453" x2="34.0875" y2="41.6034" gradientUnits="userSpaceOnUse">
<stop stop-color="#FF0000"/>
<stop offset="0.66" stop-color="#FF0000"/>
<stop offset="0.73" stop-color="#FB0000"/>
<stop offset="0.79" stop-color="#F00000"/>
<stop offset="0.85" stop-color="#DC0000"/>
<stop offset="0.92" stop-color="#C10000"/>
<stop offset="0.98" stop-color="#9F0000"/>
<stop offset="1" stop-color="#8F0000"/>
</linearGradient>
<linearGradient id="paint9_linear_434_967" x1="30.3268" y1="-3.82067" x2="37.7783" y2="30.7866" gradientUnits="userSpaceOnUse">
<stop stop-color="#FF0000"/>
<stop offset="0.7" stop-color="#FF0000"/>
<stop offset="0.75" stop-color="#FA0000"/>
<stop offset="0.81" stop-color="#EB0000"/>
<stop offset="0.88" stop-color="#D20000"/>
<stop offset="0.94" stop-color="#B00000"/>
<stop offset="1" stop-color="#8F0000"/>
</linearGradient>
<linearGradient id="paint10_linear_434_967" x1="47.5088" y1="9.51819" x2="28.9358" y2="38.2756" gradientUnits="userSpaceOnUse">
<stop stop-color="#FF0000"/>
<stop offset="0.66" stop-color="#FF0000"/>
<stop offset="0.73" stop-color="#FB0000"/>
<stop offset="0.79" stop-color="#F00000"/>
<stop offset="0.85" stop-color="#DC0000"/>
<stop offset="0.92" stop-color="#C10000"/>
<stop offset="0.98" stop-color="#9F0000"/>
<stop offset="1" stop-color="#8F0000"/>
</linearGradient>
<linearGradient id="paint11_linear_434_967" x1="52.6567" y1="32.2732" x2="17.0962" y2="36.2922" gradientUnits="userSpaceOnUse">
<stop stop-color="#FF0000"/>
<stop offset="0.66" stop-color="#FF0000"/>
<stop offset="0.73" stop-color="#FB0000"/>
<stop offset="0.79" stop-color="#F00000"/>
<stop offset="0.85" stop-color="#DC0000"/>
<stop offset="0.92" stop-color="#C10000"/>
<stop offset="0.98" stop-color="#9F0000"/>
<stop offset="1" stop-color="#8F0000"/>
</linearGradient>
<linearGradient id="paint12_linear_434_967" x1="46.0409" y1="8.57022" x2="27.4679" y2="37.3276" gradientUnits="userSpaceOnUse">
<stop stop-color="#FF0000"/>
<stop offset="0.66" stop-color="#FF0000"/>
<stop offset="0.73" stop-color="#FB0000"/>
<stop offset="0.79" stop-color="#F00000"/>
<stop offset="0.85" stop-color="#DC0000"/>
<stop offset="0.92" stop-color="#C10000"/>
<stop offset="0.98" stop-color="#9F0000"/>
<stop offset="1" stop-color="#8F0000"/>
</linearGradient>
<linearGradient id="paint13_linear_434_967" x1="56.6063" y1="15.394" x2="38.0334" y2="44.1514" gradientUnits="userSpaceOnUse">
<stop stop-color="#FF0000"/>
<stop offset="0.66" stop-color="#FF0000"/>
<stop offset="0.73" stop-color="#FB0000"/>
<stop offset="0.79" stop-color="#F00000"/>
<stop offset="0.85" stop-color="#DC0000"/>
<stop offset="0.92" stop-color="#C10000"/>
<stop offset="0.98" stop-color="#9F0000"/>
<stop offset="1" stop-color="#8F0000"/>
</linearGradient>
</defs>
</svg>
