<svg width="14" height="14" viewBox="0 0 14 14" fill="none" xmlns="http://www.w3.org/2000/svg">
<g clip-path="url(#clip0_530_1269)">
<path d="M12.7146 4.5625L13.4081 3.86903C13.5213 3.75589 13.6111 3.62156 13.6723 3.47371C13.7336 3.32585 13.7651 3.16738 13.7651 3.00733C13.7651 2.84729 13.7336 2.68882 13.6723 2.54096C13.6111 2.39311 13.5213 2.25878 13.4081 2.14564L12.1197 0.857056C11.8911 0.628617 11.5811 0.500298 11.2579 0.500298C10.9347 0.500298 10.6247 0.628617 10.3961 0.857056L9.70264 1.55054L12.7146 4.5625Z" fill="#019999"/>
<path d="M9.12837 2.125L1.29061 9.96278C1.22851 10.0248 1.18821 10.1052 1.17576 10.1921L0.76533 13.0358C0.757082 13.0935 0.761311 13.1522 0.77773 13.2081C0.794149 13.2639 0.822375 13.3156 0.860499 13.3596C0.898622 13.4036 0.945753 13.4389 0.998704 13.4632C1.05165 13.4874 1.10919 13.4999 1.16742 13.5C1.1866 13.5001 1.20575 13.4987 1.22474 13.496L4.07266 13.0898C4.1597 13.0773 4.24036 13.0369 4.30255 12.9747L12.1403 5.13696L9.12837 2.125Z" fill="#019999"/>
</g>
<defs>
<clipPath id="clip0_530_1269">
<rect width="13" height="13" fill="white" transform="translate(0.765137 0.5)"/>
</clipPath>
</defs>
</svg>
