<svg width="48" height="49" viewBox="0 0 48 49" fill="none" xmlns="http://www.w3.org/2000/svg">
<path d="M25.3581 48.7271L25.262 47.4583C24.9515 47.489 24.6431 47.513 24.3394 47.5308C24.6654 47.9348 25.005 48.3336 25.3581 48.7271Z" fill="#A70000"/>
<path d="M8.38928 42.8212L9.2592 41.7624C8.99809 41.543 8.74307 41.3207 8.49413 41.0955C8.44227 41.6646 8.40732 42.2398 8.38928 42.8212Z" fill="#A70000"/>
<path d="M0.260986 26.6438L1.6139 26.4954C1.57737 26.1534 1.54715 25.8143 1.52325 25.4783C1.09483 25.8504 0.674075 26.2389 0.260986 26.6438Z" fill="#A70000"/>
<path d="M5.55212 9.30543L6.62701 10.1488C6.83581 9.87521 7.04731 9.61027 7.26153 9.35399C6.69511 9.32116 6.12531 9.30497 5.55212 9.30543Z" fill="#A70000"/>
<path d="M1.54756 25.4569C6.07981 21.53 11.4759 19.3905 16.5831 18.5204C17.4287 18.3759 18.2643 18.2657 19.0901 18.19C20.0222 18.1032 20.9375 18.058 21.8284 18.0532C22.6903 17.7644 23.6003 17.6509 24.5058 17.7191C25.4113 17.7873 26.2946 18.0359 27.1047 18.4506C26.4174 17.7789 25.6787 17.1189 24.8927 16.48C24.248 15.9554 23.5709 15.4444 22.8633 14.9533C18.599 11.984 13.2496 9.72337 7.29134 9.35742H7.25954C7.04488 9.61507 6.83338 9.88 6.62503 10.1522C3.2529 14.5299 0.60458 20.5211 0.258911 26.6451C0.671549 26.2401 1.09253 25.8525 1.52185 25.4822L1.54756 25.4569Z" fill="url(#paint0_linear_577_910)"/>
<path d="M21.2825 0.572754L21.4726 1.93598C21.8094 1.8881 22.1436 1.84661 22.4751 1.81149C22.0935 1.38969 21.696 0.976775 21.2825 0.572754Z" fill="#A70000"/>
<path d="M7.29128 9.35751C13.2475 9.72345 18.5969 11.9841 22.864 14.9513C23.5702 15.4425 24.2473 15.9534 24.8933 16.478C25.6794 17.1169 26.418 17.7777 27.1053 18.4487C28.6779 19.2567 29.8841 20.6438 30.4754 22.3243C30.4443 21.3523 30.3672 20.3509 30.2421 19.331C30.1392 18.5007 30.0046 17.658 29.8362 16.8084C28.8127 11.6742 26.5215 6.28836 22.498 1.83478L22.4763 1.81152C22.1449 1.84618 21.8107 1.88768 21.4738 1.93601C16.0399 2.70826 10.016 5.15086 5.55347 9.30621C6.12845 9.30621 6.69825 9.32308 7.26287 9.35683L7.29128 9.35751Z" fill="url(#paint1_linear_577_910)"/>
<path d="M38.5902 5.36084L37.7893 6.47441C38.0639 6.67687 38.3325 6.88208 38.595 7.09001C38.6108 6.52092 38.6092 5.94453 38.5902 5.36084Z" fill="#A70000"/>
<path d="M22.475 1.81076L22.4966 1.83402C26.5236 6.2876 28.8113 11.6735 29.8348 16.8077C30.0046 17.6572 30.1392 18.4999 30.2407 19.3303C30.3658 20.3501 30.4436 21.3515 30.4741 22.3235C31.0448 23.9528 30.9966 25.7385 30.3388 27.3339C30.9476 26.6499 31.5449 25.9166 32.1219 25.145C32.618 24.4761 33.0992 23.7766 33.5655 23.0465C36.3619 18.6387 38.4244 13.1598 38.5956 7.12824C38.5956 7.1173 38.5956 7.10704 38.5956 7.0961C38.3331 6.88816 38.0646 6.68295 37.7899 6.48049C33.3551 3.21229 27.3475 0.729341 21.2844 0.575439C21.6966 0.976725 22.0935 1.3885 22.475 1.81076Z" fill="url(#paint2_linear_577_910)"/>
<path d="M46.5487 22.2018C46.9411 21.811 47.3244 21.4059 47.6987 20.9863L46.385 21.2175C46.4418 21.5513 46.4928 21.8828 46.5379 22.2121L46.5487 22.2018Z" fill="#A70000"/>
<path d="M38.595 7.09275C38.595 7.1037 38.595 7.11396 38.595 7.1249C38.4238 13.1565 36.3627 18.6354 33.5648 23.0432C33.1022 23.7728 32.621 24.4723 32.1213 25.1417C31.5443 25.9167 30.947 26.6465 30.3382 27.3305C29.6796 28.9146 28.4661 30.1972 26.9302 30.9325C27.7737 30.8641 28.6362 30.7595 29.5115 30.6165C30.3287 30.4838 31.1551 30.3169 31.9907 30.1158C37.0276 28.8983 42.2729 26.4488 46.5271 22.2203L46.5392 22.2087C46.4942 21.879 46.4432 21.5475 46.3864 21.2141C45.4481 15.7503 42.8411 9.7385 38.5902 5.36084C38.6101 5.94407 38.6117 6.52138 38.595 7.09275Z" fill="url(#paint3_linear_577_910)"/>
<path d="M8.49676 41.0661C9.05619 34.9852 11.5131 29.5952 14.6363 25.3537C14.9885 24.8753 15.3493 24.4118 15.7186 23.9631C16.3903 23.1423 17.0844 22.3748 17.7906 21.6607C18.1897 20.8161 18.753 20.0615 19.4468 19.4418C20.1407 18.8221 20.9508 18.3501 21.829 18.054C20.9381 18.0608 20.0229 18.1059 19.0907 18.1908C18.2663 18.2674 17.4307 18.3775 16.5838 18.5211C11.4765 19.3912 6.07911 21.5308 1.54821 25.4577L1.52454 25.4789C1.54799 25.8145 1.5782 26.1535 1.61518 26.496C2.20437 32.0125 4.42518 38.1789 8.38988 42.8219C8.40747 42.2405 8.44242 41.6653 8.49473 41.0962C8.49473 41.0845 8.49608 41.0743 8.49676 41.0661Z" fill="url(#paint4_linear_577_910)"/>
<path d="M24.2264 47.3863C20.4443 42.6242 18.5009 37.0235 17.8264 31.7799C17.7502 31.1871 17.69 30.6007 17.6458 30.0207C17.5687 29.0124 17.5383 28.0233 17.5484 27.0616C17.2309 26.19 17.0887 25.2631 17.1302 24.3352C17.1717 23.4073 17.396 22.4971 17.7899 21.658C17.0837 22.3721 16.3896 23.1402 15.7179 23.9603C15.3499 24.409 14.9892 24.8726 14.6356 25.3509C11.5124 29.5918 9.05552 34.9825 8.49609 41.0633C8.49609 41.0742 8.49609 41.0845 8.49609 41.0954C8.74413 41.3198 8.99915 41.5421 9.26116 41.7623C13.4795 45.3103 19.3173 48.1784 25.3608 48.7242C25.0068 48.332 24.6672 47.9332 24.3421 47.5279C24.3008 47.4807 24.2636 47.4335 24.2264 47.3863Z" fill="url(#paint5_linear_577_910)"/>
<path d="M41.8047 38.6879C40.035 38.6918 38.2687 38.5304 36.5284 38.2056L36.4147 38.1851L36.2043 38.1434C32.4351 37.4054 28.9663 35.9628 25.9628 34.1659C25.2255 33.724 24.517 33.2625 23.8374 32.7815C23.3902 32.4661 22.958 32.1282 22.5386 31.7855C22.3199 31.6136 22.1052 31.4406 21.8946 31.2664C20.9034 30.943 19.9976 30.3967 19.2453 29.6684C18.493 28.9402 17.9138 28.049 17.5511 27.0618C17.5409 28.0235 17.5714 29.0126 17.6485 30.0208C17.6936 30.6017 17.7538 31.1882 17.8291 31.7801C18.5056 37.0237 20.447 42.6243 24.2291 47.3864C24.2663 47.4336 24.3035 47.4808 24.342 47.528C24.6457 47.5102 24.9542 47.4863 25.2647 47.4555C31.3224 46.8631 38.5983 43.8679 43.5479 38.6277C42.9743 38.666 42.4045 38.686 41.8385 38.6879H41.8047Z" fill="url(#paint6_linear_577_910)"/>
<path d="M41.9035 38.6795H41.8412L41.8358 38.6877C42.4013 38.685 42.9711 38.6649 43.5452 38.6275L42.4582 37.8799C42.276 38.1521 42.0911 38.4187 41.9035 38.6795Z" fill="#A70000"/>
<path d="M46.5406 22.2271L46.5182 22.249C42.2458 26.4618 36.9944 28.9468 31.9528 30.1459C31.1187 30.3442 30.2901 30.5077 29.4723 30.6377C28.6057 30.7745 27.752 30.8757 26.9173 30.9414C25.3535 31.6814 23.572 31.8012 21.925 31.2772C22.1253 31.4469 22.3282 31.6163 22.5339 31.7854C22.9397 32.1046 23.3573 32.417 23.7867 32.7225C24.4631 33.2041 25.1698 33.6681 25.9067 34.1145C28.9196 35.9333 32.4074 37.3977 36.1996 38.1433L36.41 38.185L36.5236 38.2055C38.2771 38.5301 40.0566 38.6888 41.8392 38.6796C42.0349 38.4101 42.2275 38.1346 42.4169 37.8533L42.4561 37.88L42.4818 37.843C45.5529 33.2451 47.7927 27.0856 47.7284 20.948L47.6973 20.9829L47.7244 20.9781C47.3401 21.4113 46.9455 21.8276 46.5406 22.2271Z" fill="url(#paint7_linear_577_910)"/>
<path d="M46.5487 22.2017L46.5386 22.212V22.227C46.9444 21.8271 47.3397 21.4119 47.7244 20.9814L47.6973 20.9862C47.3221 21.4062 46.9393 21.8114 46.5487 22.2017Z" fill="#A70000"/>
<path d="M46.5487 22.2017L46.5386 22.212V22.227C46.9444 21.8271 47.3397 21.4119 47.7244 20.9814L47.6973 20.9862C47.3221 21.4062 46.9393 21.8114 46.5487 22.2017Z" fill="url(#paint8_linear_577_910)"/>
<path d="M29.4723 30.6378C30.2902 30.5078 31.1188 30.3443 31.9529 30.146C36.9945 28.9469 42.2458 26.4619 46.5183 22.2491L46.5406 22.2272V22.2122L46.5285 22.2238C42.2688 26.4523 37.027 28.9018 31.9901 30.122C31.1558 30.3236 30.3294 30.4905 29.5109 30.6227C28.6356 30.7657 27.7731 30.8697 26.9295 30.9387L26.9174 30.9442C27.7521 30.8744 28.6058 30.7753 29.4723 30.6378Z" fill="url(#paint9_linear_577_910)"/>
<path d="M29.4723 30.6378C30.2902 30.5078 31.1188 30.3443 31.9529 30.146C36.9945 28.9469 42.2458 26.4619 46.5183 22.2491L46.5406 22.2272V22.2122L46.5285 22.2238C42.2688 26.4523 37.027 28.9018 31.9901 30.122C31.1558 30.3236 30.3294 30.4905 29.5109 30.6227C28.6356 30.7657 27.7731 30.8697 26.9295 30.9387L26.9174 30.9442C27.7521 30.8744 28.6058 30.7753 29.4723 30.6378Z" fill="url(#paint10_linear_577_910)"/>
<path d="M23.7887 32.7213C23.358 32.4148 22.9404 32.1025 22.5359 31.7842C22.9546 32.1262 23.3875 32.4648 23.8347 32.7801C24.5111 33.2594 25.2196 33.7208 25.9601 34.1645C28.9615 35.9614 32.4324 37.404 36.2016 38.142C32.4094 37.3944 28.9216 35.932 25.9087 34.1132C25.1727 33.6695 24.466 33.2056 23.7887 32.7213Z" fill="url(#paint11_linear_577_910)"/>
<path d="M23.7887 32.7213C23.358 32.4148 22.9404 32.1025 22.5359 31.7842C22.9546 32.1262 23.3875 32.4648 23.8347 32.7801C24.5111 33.2594 25.2196 33.7208 25.9601 34.1645C28.9615 35.9614 32.4324 37.404 36.2016 38.142C32.4094 37.3944 28.9216 35.932 25.9087 34.1132C25.1727 33.6695 24.466 33.2056 23.7887 32.7213Z" fill="url(#paint12_linear_577_910)"/>
<path d="M41.8413 38.6796H41.9035C42.0916 38.4187 42.2765 38.1522 42.4582 37.8799L42.419 37.8533C42.2296 38.1346 42.037 38.4101 41.8413 38.6796Z" fill="#A70000"/>
<path d="M41.8413 38.6796H41.9035C42.0916 38.4187 42.2765 38.1522 42.4582 37.8799L42.419 37.8533C42.2296 38.1346 42.037 38.4101 41.8413 38.6796Z" fill="url(#paint13_linear_577_910)"/>
<defs>
<linearGradient id="paint0_linear_577_910" x1="8.30332" y1="32.873" x2="17.8992" y2="11.1957" gradientUnits="userSpaceOnUse">
<stop stop-color="#FF0000"/>
<stop offset="0.53" stop-color="#FF0000"/>
<stop offset="0.62" stop-color="#FB0000"/>
<stop offset="0.71" stop-color="#F00000"/>
<stop offset="0.79" stop-color="#DC0000"/>
<stop offset="0.88" stop-color="#C10000"/>
<stop offset="0.97" stop-color="#9F0000"/>
<stop offset="1" stop-color="#8F0000"/>
</linearGradient>
<linearGradient id="paint1_linear_577_910" x1="-5.88539" y1="11.5976" x2="32.7126" y2="12.1455" gradientUnits="userSpaceOnUse">
<stop offset="0.39" stop-color="#FF0000"/>
<stop offset="0.64" stop-color="#FF0000"/>
<stop offset="0.69" stop-color="#F90000"/>
<stop offset="0.77" stop-color="#E90000"/>
<stop offset="0.85" stop-color="#CE0000"/>
<stop offset="0.95" stop-color="#A80000"/>
<stop offset="1" stop-color="#8F0000"/>
</linearGradient>
<linearGradient id="paint2_linear_577_910" x1="12.2159" y1="-7.30161" x2="38.2895" y2="20.7949" gradientUnits="userSpaceOnUse">
<stop stop-color="#FF0000"/>
<stop offset="0.58" stop-color="#FF0000"/>
<stop offset="0.66" stop-color="#FB0000"/>
<stop offset="0.74" stop-color="#EF0000"/>
<stop offset="0.82" stop-color="#DC0000"/>
<stop offset="0.9" stop-color="#C00000"/>
<stop offset="0.97" stop-color="#9D0000"/>
<stop offset="1" stop-color="#8F0000"/>
</linearGradient>
<linearGradient id="paint3_linear_577_910" x1="30.3706" y1="-3.83019" x2="37.8221" y2="30.777" gradientUnits="userSpaceOnUse">
<stop stop-color="#FF0000"/>
<stop offset="0.7" stop-color="#FF0000"/>
<stop offset="0.75" stop-color="#FA0000"/>
<stop offset="0.81" stop-color="#EB0000"/>
<stop offset="0.88" stop-color="#D20000"/>
<stop offset="0.94" stop-color="#B00000"/>
<stop offset="1" stop-color="#8F0000"/>
</linearGradient>
<linearGradient id="paint4_linear_577_910" x1="16.1975" y1="49.3494" x2="10.8191" y2="17.7158" gradientUnits="userSpaceOnUse">
<stop stop-color="#FF0000"/>
<stop offset="0.66" stop-color="#FF0000"/>
<stop offset="0.73" stop-color="#FB0000"/>
<stop offset="0.79" stop-color="#F00000"/>
<stop offset="0.85" stop-color="#DC0000"/>
<stop offset="0.92" stop-color="#C10000"/>
<stop offset="0.98" stop-color="#9F0000"/>
<stop offset="1" stop-color="#8F0000"/>
</linearGradient>
<linearGradient id="paint5_linear_577_910" x1="34.3008" y1="44.2227" x2="11.0858" y2="30.815" gradientUnits="userSpaceOnUse">
<stop stop-color="#FF0000"/>
<stop offset="0.66" stop-color="#FF0000"/>
<stop offset="0.73" stop-color="#FB0000"/>
<stop offset="0.79" stop-color="#F00000"/>
<stop offset="0.85" stop-color="#DC0000"/>
<stop offset="0.92" stop-color="#C10000"/>
<stop offset="0.98" stop-color="#9F0000"/>
<stop offset="1" stop-color="#8F0000"/>
</linearGradient>
<linearGradient id="paint6_linear_577_910" x1="52.81" y1="33.6317" x2="17.2495" y2="37.6507" gradientUnits="userSpaceOnUse">
<stop stop-color="#FF0000"/>
<stop offset="0.66" stop-color="#FF0000"/>
<stop offset="0.73" stop-color="#FB0000"/>
<stop offset="0.79" stop-color="#F00000"/>
<stop offset="0.85" stop-color="#DC0000"/>
<stop offset="0.92" stop-color="#C10000"/>
<stop offset="0.98" stop-color="#9F0000"/>
<stop offset="1" stop-color="#8F0000"/>
</linearGradient>
<linearGradient id="paint7_linear_577_910" x1="47.8779" y1="9.75624" x2="29.3049" y2="38.5143" gradientUnits="userSpaceOnUse">
<stop stop-color="#FF0000"/>
<stop offset="0.66" stop-color="#FF0000"/>
<stop offset="0.73" stop-color="#FB0000"/>
<stop offset="0.79" stop-color="#F00000"/>
<stop offset="0.85" stop-color="#DC0000"/>
<stop offset="0.92" stop-color="#C10000"/>
<stop offset="0.98" stop-color="#9F0000"/>
<stop offset="1" stop-color="#8F0000"/>
</linearGradient>
<linearGradient id="paint8_linear_577_910" x1="52.6605" y1="12.8451" x2="34.0875" y2="41.6033" gradientUnits="userSpaceOnUse">
<stop stop-color="#FF0000"/>
<stop offset="0.66" stop-color="#FF0000"/>
<stop offset="0.73" stop-color="#FB0000"/>
<stop offset="0.79" stop-color="#F00000"/>
<stop offset="0.85" stop-color="#DC0000"/>
<stop offset="0.92" stop-color="#C10000"/>
<stop offset="0.98" stop-color="#9F0000"/>
<stop offset="1" stop-color="#8F0000"/>
</linearGradient>
<linearGradient id="paint9_linear_577_910" x1="30.3267" y1="-3.82055" x2="37.7782" y2="30.7867" gradientUnits="userSpaceOnUse">
<stop stop-color="#FF0000"/>
<stop offset="0.7" stop-color="#FF0000"/>
<stop offset="0.75" stop-color="#FA0000"/>
<stop offset="0.81" stop-color="#EB0000"/>
<stop offset="0.88" stop-color="#D20000"/>
<stop offset="0.94" stop-color="#B00000"/>
<stop offset="1" stop-color="#8F0000"/>
</linearGradient>
<linearGradient id="paint10_linear_577_910" x1="47.5087" y1="9.51832" x2="28.9357" y2="38.2757" gradientUnits="userSpaceOnUse">
<stop stop-color="#FF0000"/>
<stop offset="0.66" stop-color="#FF0000"/>
<stop offset="0.73" stop-color="#FB0000"/>
<stop offset="0.79" stop-color="#F00000"/>
<stop offset="0.85" stop-color="#DC0000"/>
<stop offset="0.92" stop-color="#C10000"/>
<stop offset="0.98" stop-color="#9F0000"/>
<stop offset="1" stop-color="#8F0000"/>
</linearGradient>
<linearGradient id="paint11_linear_577_910" x1="52.6564" y1="32.2732" x2="17.0959" y2="36.2923" gradientUnits="userSpaceOnUse">
<stop stop-color="#FF0000"/>
<stop offset="0.66" stop-color="#FF0000"/>
<stop offset="0.73" stop-color="#FB0000"/>
<stop offset="0.79" stop-color="#F00000"/>
<stop offset="0.85" stop-color="#DC0000"/>
<stop offset="0.92" stop-color="#C10000"/>
<stop offset="0.98" stop-color="#9F0000"/>
<stop offset="1" stop-color="#8F0000"/>
</linearGradient>
<linearGradient id="paint12_linear_577_910" x1="46.0407" y1="8.57028" x2="27.4677" y2="37.3277" gradientUnits="userSpaceOnUse">
<stop stop-color="#FF0000"/>
<stop offset="0.66" stop-color="#FF0000"/>
<stop offset="0.73" stop-color="#FB0000"/>
<stop offset="0.79" stop-color="#F00000"/>
<stop offset="0.85" stop-color="#DC0000"/>
<stop offset="0.92" stop-color="#C10000"/>
<stop offset="0.98" stop-color="#9F0000"/>
<stop offset="1" stop-color="#8F0000"/>
</linearGradient>
<linearGradient id="paint13_linear_577_910" x1="56.6063" y1="15.3939" x2="38.0334" y2="44.1513" gradientUnits="userSpaceOnUse">
<stop stop-color="#FF0000"/>
<stop offset="0.66" stop-color="#FF0000"/>
<stop offset="0.73" stop-color="#FB0000"/>
<stop offset="0.79" stop-color="#F00000"/>
<stop offset="0.85" stop-color="#DC0000"/>
<stop offset="0.92" stop-color="#C10000"/>
<stop offset="0.98" stop-color="#9F0000"/>
<stop offset="1" stop-color="#8F0000"/>
</linearGradient>
</defs>
</svg>
