<svg width="135" height="53" viewBox="0 0 135 53" fill="none" xmlns="http://www.w3.org/2000/svg">
<path d="M11.9524 0.461426V20.4706H31.3868V0.461426H43.1552V52.53H31.3868V30.7462H11.9524V52.53H0.105469V0.461426H11.9524Z" fill="#FF0000"/>
<path d="M50.3525 52.5313V0.462755H64.1336L74.9716 19.5448C78.1992 25.3011 81.045 31.2623 83.4907 37.3903H83.7237C82.949 30.5151 82.7174 23.4845 82.7174 15.6822V0.461426H93.5553V52.53H81.168L70.0198 32.4438C66.9223 26.8809 63.516 20.1598 60.9682 14.0564L60.7353 14.1347C61.0454 21.0099 61.1998 28.3473 61.1998 36.8483V52.5313H50.3525Z" fill="#FF0000"/>
<path d="M100.676 0.461426H112.523V42.6423H126.791L135 52.5313H100.676V0.461426Z" fill="#FF0000"/>
</svg>
