<svg width="94" height="94" viewBox="0 0 94 94" fill="none" xmlns="http://www.w3.org/2000/svg">
<path d="M49.3899 93.8871L49.2009 91.4231C48.5899 91.4829 47.9829 91.5294 47.3853 91.5639C48.0269 92.3485 48.6951 93.1229 49.3899 93.8871Z" fill="#A70000"/>
<path d="M15.9985 82.4186L17.7104 80.3625C17.1965 79.9365 16.6947 79.5048 16.2049 79.0674C16.1028 80.1725 16.034 81.2896 15.9985 82.4186Z" fill="#A70000"/>
<path d="M0.00390625 51.0036L2.66615 50.7154C2.59426 50.0512 2.53481 49.3929 2.48778 48.7402C1.64473 49.4628 0.816776 50.2173 0.00390625 51.0036Z" fill="#A70000"/>
<path d="M10.416 17.3345L12.5312 18.9723C12.942 18.4409 13.3582 17.9265 13.7798 17.4288C12.6652 17.365 11.5439 17.3336 10.416 17.3345Z" fill="#A70000"/>
<path d="M2.53578 48.699C11.4543 41.0734 22.0726 36.9185 32.1226 35.229C33.7865 34.9482 35.4309 34.7344 37.0557 34.5874C38.89 34.4187 40.691 34.331 42.4441 34.3217C44.1402 33.7609 45.9308 33.5404 47.7127 33.6728C49.4946 33.8053 51.2326 34.2881 52.8268 35.0935C51.4744 33.7891 50.0208 32.5073 48.4741 31.2667C47.2055 30.2479 45.873 29.2557 44.4807 28.302C36.0893 22.5359 25.5628 18.1459 13.8383 17.4353H13.7758C13.3533 17.9356 12.9372 18.4501 12.5272 18.9788C5.89153 27.4798 0.680202 39.1142 0 51.0063C0.811983 50.2199 1.64038 49.4672 2.4852 48.7482L2.53578 48.699Z" fill="url(#paint0_linear_344_1312)"/>
<path d="M41.3696 0.376221L41.7437 3.02348C42.4066 2.9305 43.0641 2.84992 43.7164 2.78173C42.9656 1.96263 42.1834 1.16079 41.3696 0.376221Z" fill="#A70000"/>
<path d="M13.8386 17.4353C25.5591 18.146 36.0856 22.5359 44.4823 28.298C45.872 29.2517 47.2044 30.2439 48.4757 31.2627C50.0224 32.5033 51.476 33.7865 52.8284 35.0895C55.9229 36.6586 58.2964 39.3523 59.4601 42.6155C59.3988 40.7281 59.2471 38.7834 59.0008 36.803C58.7985 35.1904 58.5336 33.554 58.2022 31.9043C56.1882 21.9342 51.6797 11.4753 43.7622 2.8269L43.7196 2.78174C43.0673 2.84904 42.4097 2.92962 41.7468 3.02349C31.054 4.52311 19.2003 9.2664 10.4189 17.3357C11.5504 17.3357 12.6716 17.3685 13.7827 17.434L13.8386 17.4353Z" fill="url(#paint1_linear_344_1312)"/>
<path d="M75.4276 9.67407L73.8516 11.8365C74.392 12.2297 74.9205 12.6282 75.4369 13.032C75.468 11.9268 75.4649 10.8075 75.4276 9.67407Z" fill="#A70000"/>
<path d="M43.7168 2.78047L43.7594 2.82563C51.6836 11.4741 56.1854 21.9329 58.1994 31.903C58.5335 33.5527 58.7984 35.1892 58.9981 36.8017C59.2443 38.7822 59.3974 40.7268 59.4573 42.6143C60.5804 45.7783 60.4855 49.2458 59.1911 52.3439C60.3891 51.0156 61.5644 49.5917 62.6999 48.0934C63.676 46.7944 64.6229 45.436 65.5405 44.0183C71.0433 35.4588 75.1019 24.8193 75.4387 13.1065C75.4387 13.0853 75.4387 13.0653 75.4387 13.0441C74.9222 12.6403 74.3938 12.2418 73.8533 11.8486C65.1265 5.50211 53.3048 0.680455 41.374 0.381592C42.1851 1.16085 42.966 1.96047 43.7168 2.78047Z" fill="url(#paint2_linear_344_1312)"/>
<path d="M91.0882 42.3777C91.8603 41.6188 92.6146 40.832 93.3511 40.0173L90.7661 40.4663C90.8779 41.1145 90.9782 41.7583 91.0669 42.3976L91.0882 42.3777Z" fill="#A70000"/>
<path d="M75.4372 13.0373C75.4372 13.0585 75.4372 13.0785 75.4372 13.0997C75.1004 24.8125 71.0445 35.452 65.539 44.0115C64.6285 45.4283 63.6817 46.7867 62.6984 48.0866C61.563 49.5916 60.3876 51.0088 59.1896 52.3371C57.8937 55.4132 55.5057 57.9039 52.4834 59.3318C54.1433 59.199 55.8405 58.9958 57.5629 58.7182C59.1709 58.4605 60.7971 58.1364 62.4415 57.7459C72.353 55.3815 82.6745 50.625 91.0459 42.4135L91.0699 42.3909C90.9811 41.7507 90.8809 41.1069 90.769 40.4596C88.9228 29.8493 83.7927 18.1751 75.4279 9.67407C75.4669 10.8067 75.4701 11.9277 75.4372 13.0373Z" fill="url(#paint3_linear_344_1312)"/>
<path d="M16.2101 79.0103C17.3109 67.2019 22.1456 56.7351 28.2913 48.4984C28.9844 47.5695 29.6943 46.6694 30.4211 45.798C31.7429 44.2041 33.1087 42.7137 34.4983 41.327C35.2838 39.6869 36.3922 38.2215 37.7575 37.0181C39.1228 35.8147 40.7171 34.8982 42.4451 34.323C40.692 34.3363 38.891 34.4239 37.0568 34.5887C35.4346 34.7374 33.7902 34.9513 32.1236 35.2302C22.0737 36.9198 11.4527 41.0746 2.53682 48.7003L2.49023 48.7415C2.53638 49.3932 2.59584 50.0516 2.6686 50.7166C3.82801 61.4292 8.19808 73.4037 15.9998 82.42C16.0344 81.291 16.1032 80.1739 16.2061 79.0688C16.2061 79.0462 16.2088 79.0263 16.2101 79.0103Z" fill="url(#paint4_linear_344_1312)"/>
<path d="M47.1628 91.2837C39.7205 82.0362 35.8962 71.1603 34.5691 60.9777C34.4191 59.8265 34.3007 58.6877 34.2137 57.5613C34.062 55.6034 34.0021 53.6828 34.022 51.8152C33.3972 50.1226 33.1174 48.3226 33.199 46.5207C33.2807 44.7187 33.722 42.9512 34.4972 41.3218C33.1075 42.7085 31.7418 44.2002 30.42 45.7928C29.6959 46.6641 28.986 47.5643 28.2902 48.4932C22.1444 56.7285 17.3098 67.1967 16.209 79.0051C16.209 79.0263 16.209 79.0463 16.209 79.0675C16.6971 79.5032 17.1989 79.9349 17.7145 80.3626C26.0153 87.2524 37.5029 92.8219 49.3951 93.8818C48.6985 93.1203 48.0303 92.3459 47.3905 91.5587C47.3093 91.467 47.236 91.3754 47.1628 91.2837Z" fill="url(#paint5_linear_344_1312)"/>
<path d="M81.7536 74.392C78.2712 74.3997 74.7955 74.0862 71.3709 73.4555L71.1473 73.4157L70.7333 73.3347C63.3163 71.9014 56.4903 69.1001 50.5801 65.6107C49.1292 64.7526 47.7351 63.8565 46.3977 62.9223C45.5179 62.3099 44.6673 61.6538 43.842 60.9883C43.4116 60.6544 42.9892 60.3184 42.5748 59.9801C40.6244 59.3522 38.8419 58.2913 37.3616 56.8771C35.8812 55.4629 34.7413 53.7322 34.0276 51.8152C34.0077 53.6827 34.0676 55.6034 34.2193 57.5613C34.3081 58.6895 34.4265 59.8283 34.5747 60.9777C35.9059 71.1603 39.7262 82.0362 47.1685 91.2837C47.2417 91.3754 47.3149 91.467 47.3908 91.5587C47.9884 91.5241 48.5954 91.4776 49.2064 91.4179C61.1266 90.2676 75.4441 84.451 85.1839 74.2751C84.0551 74.3495 82.9339 74.3884 81.8202 74.392H81.7536Z" fill="url(#paint6_linear_344_1312)"/>
<path d="M81.9476 74.376H81.8251L81.8145 74.3919C82.9273 74.3866 84.0485 74.3477 85.1782 74.2751L83.0391 72.8232C82.6806 73.3519 82.3167 73.8695 81.9476 74.376Z" fill="#A70000"/>
<path d="M91.0724 42.427L91.0285 42.4695C82.6211 50.6504 72.2876 55.476 62.3668 57.8045C60.7255 58.1897 59.0949 58.5072 57.4856 58.7595C55.7804 59.0252 54.1005 59.2218 52.4579 59.3493C49.3807 60.7863 45.8752 61.0191 42.6343 60.0015C43.0283 60.3309 43.4276 60.6599 43.8323 60.9884C44.631 61.6083 45.4527 62.2148 46.2975 62.8081C47.6286 63.7432 49.0192 64.6443 50.4692 65.5112C56.3981 69.0431 63.2613 71.8869 70.7236 73.3348L71.1375 73.4158L71.3612 73.4556C74.8116 74.0859 78.3134 74.394 81.8211 74.3761C82.2062 73.8528 82.5852 73.3179 82.9579 72.7716L83.0351 72.8234L83.0857 72.7516C89.1289 63.8229 93.5363 51.8618 93.4098 39.9431L93.3486 40.0109L93.4018 40.0016C92.6458 40.8428 91.8693 41.6513 91.0724 42.427Z" fill="url(#paint7_linear_344_1312)"/>
<path d="M91.0883 42.3777L91.0684 42.3976V42.4269C91.867 41.6503 92.6449 40.844 93.4018 40.0081L93.3486 40.0174C92.6102 40.8329 91.8568 41.6197 91.0883 42.3777Z" fill="#A70000"/>
<path d="M91.0883 42.3777L91.0684 42.3976V42.4269C91.867 41.6503 92.6449 40.844 93.4018 40.0081L93.3486 40.0174C92.6102 40.8329 91.8568 41.6197 91.0883 42.3777Z" fill="url(#paint8_linear_344_1312)"/>
<path d="M57.4857 58.7595C59.095 58.5071 60.7256 58.1896 62.3669 57.8044C72.2877 55.476 82.6212 50.6503 91.0285 42.4694L91.0725 42.4269V42.3977L91.0485 42.4203C82.6664 50.6317 72.3516 55.3883 62.4401 57.7579C60.7984 58.1493 59.1722 58.4734 57.5615 58.7302C55.839 59.0079 54.1419 59.2098 52.482 59.3439L52.458 59.3545C54.1006 59.2191 55.7805 59.0264 57.4857 58.7595Z" fill="url(#paint9_linear_344_1312)"/>
<path d="M57.4857 58.7595C59.095 58.5071 60.7256 58.1896 62.3669 57.8044C72.2877 55.476 82.6212 50.6503 91.0285 42.4694L91.0725 42.4269V42.3977L91.0485 42.4203C82.6664 50.6317 72.3516 55.3883 62.4401 57.7579C60.7984 58.1493 59.1722 58.4734 57.5615 58.7302C55.839 59.0079 54.1419 59.2098 52.482 59.3439L52.458 59.3545C54.1006 59.2191 55.7805 59.0264 57.4857 58.7595Z" fill="url(#paint10_linear_344_1312)"/>
<path d="M46.3017 62.8053C45.4542 62.2103 44.6324 61.6037 43.8364 60.9856C44.6604 61.6497 45.5123 62.3072 46.3922 62.9196C47.7233 63.8503 49.1174 64.7464 50.5746 65.608C56.4807 69.0974 63.3107 71.8987 70.7277 73.332C63.2655 71.8802 56.4022 69.0403 50.4734 65.5084C49.0251 64.6468 47.6346 63.7458 46.3017 62.8053Z" fill="url(#paint11_linear_344_1312)"/>
<path d="M46.3017 62.8053C45.4542 62.2103 44.6324 61.6037 43.8364 60.9856C44.6604 61.6497 45.5123 62.3072 46.3922 62.9196C47.7233 63.8503 49.1174 64.7464 50.5746 65.608C56.4807 69.0974 63.3107 71.8987 70.7277 73.332C63.2655 71.8802 56.4022 69.0403 50.4734 65.5084C49.0251 64.6468 47.6346 63.7458 46.3017 62.8053Z" fill="url(#paint12_linear_344_1312)"/>
<path d="M81.8252 74.376H81.9477C82.3177 73.8695 82.6815 73.3519 83.0392 72.8233L82.962 72.7715C82.5893 73.3179 82.2103 73.8527 81.8252 74.376Z" fill="#A70000"/>
<path d="M81.8252 74.376H81.9477C82.3177 73.8695 82.6815 73.3519 83.0392 72.8233L82.962 72.7715C82.5893 73.3179 82.2103 73.8527 81.8252 74.376Z" fill="url(#paint13_linear_344_1312)"/>
<defs>
<linearGradient id="paint0_linear_344_1312" x1="15.8297" y1="63.1003" x2="34.2979" y2="20.824" gradientUnits="userSpaceOnUse">
<stop stop-color="#FF0000"/>
<stop offset="0.53" stop-color="#FF0000"/>
<stop offset="0.62" stop-color="#FB0000"/>
<stop offset="0.71" stop-color="#F00000"/>
<stop offset="0.79" stop-color="#DC0000"/>
<stop offset="0.88" stop-color="#C10000"/>
<stop offset="0.97" stop-color="#9F0000"/>
<stop offset="1" stop-color="#8F0000"/>
</linearGradient>
<linearGradient id="paint1_linear_344_1312" x1="-12.0903" y1="21.7854" x2="63.862" y2="22.878" gradientUnits="userSpaceOnUse">
<stop offset="0.39" stop-color="#FF0000"/>
<stop offset="0.64" stop-color="#FF0000"/>
<stop offset="0.69" stop-color="#F90000"/>
<stop offset="0.77" stop-color="#E90000"/>
<stop offset="0.85" stop-color="#CE0000"/>
<stop offset="0.95" stop-color="#A80000"/>
<stop offset="1" stop-color="#8F0000"/>
</linearGradient>
<linearGradient id="paint2_linear_344_1312" x1="23.529" y1="-14.9149" x2="74.1072" y2="40.3137" gradientUnits="userSpaceOnUse">
<stop stop-color="#FF0000"/>
<stop offset="0.58" stop-color="#FF0000"/>
<stop offset="0.66" stop-color="#FB0000"/>
<stop offset="0.74" stop-color="#EF0000"/>
<stop offset="0.82" stop-color="#DC0000"/>
<stop offset="0.9" stop-color="#C00000"/>
<stop offset="0.97" stop-color="#9D0000"/>
<stop offset="1" stop-color="#8F0000"/>
</linearGradient>
<linearGradient id="paint3_linear_344_1312" x1="59.2535" y1="-8.17403" x2="73.5497" y2="59.1078" gradientUnits="userSpaceOnUse">
<stop stop-color="#FF0000"/>
<stop offset="0.7" stop-color="#FF0000"/>
<stop offset="0.75" stop-color="#FA0000"/>
<stop offset="0.81" stop-color="#EB0000"/>
<stop offset="0.88" stop-color="#D20000"/>
<stop offset="0.94" stop-color="#B00000"/>
<stop offset="1" stop-color="#8F0000"/>
</linearGradient>
<linearGradient id="paint4_linear_344_1312" x1="31.3635" y1="95.0958" x2="21.049" y2="33.6211" gradientUnits="userSpaceOnUse">
<stop stop-color="#FF0000"/>
<stop offset="0.66" stop-color="#FF0000"/>
<stop offset="0.73" stop-color="#FB0000"/>
<stop offset="0.79" stop-color="#F00000"/>
<stop offset="0.85" stop-color="#DC0000"/>
<stop offset="0.92" stop-color="#C10000"/>
<stop offset="0.98" stop-color="#9F0000"/>
<stop offset="1" stop-color="#8F0000"/>
</linearGradient>
<linearGradient id="paint5_linear_344_1312" x1="66.9872" y1="85.1404" x2="21.6095" y2="58.5834" gradientUnits="userSpaceOnUse">
<stop stop-color="#FF0000"/>
<stop offset="0.66" stop-color="#FF0000"/>
<stop offset="0.73" stop-color="#FB0000"/>
<stop offset="0.79" stop-color="#F00000"/>
<stop offset="0.85" stop-color="#DC0000"/>
<stop offset="0.92" stop-color="#C10000"/>
<stop offset="0.98" stop-color="#9F0000"/>
<stop offset="1" stop-color="#8F0000"/>
</linearGradient>
<linearGradient id="paint6_linear_344_1312" x1="103.41" y1="64.5733" x2="33.4578" y2="72.5847" gradientUnits="userSpaceOnUse">
<stop stop-color="#FF0000"/>
<stop offset="0.66" stop-color="#FF0000"/>
<stop offset="0.73" stop-color="#FB0000"/>
<stop offset="0.79" stop-color="#F00000"/>
<stop offset="0.85" stop-color="#DC0000"/>
<stop offset="0.92" stop-color="#C10000"/>
<stop offset="0.98" stop-color="#9F0000"/>
<stop offset="1" stop-color="#8F0000"/>
</linearGradient>
<linearGradient id="paint7_linear_344_1312" x1="93.704" y1="18.2098" x2="57.8355" y2="74.4881" gradientUnits="userSpaceOnUse">
<stop stop-color="#FF0000"/>
<stop offset="0.66" stop-color="#FF0000"/>
<stop offset="0.73" stop-color="#FB0000"/>
<stop offset="0.79" stop-color="#F00000"/>
<stop offset="0.85" stop-color="#DC0000"/>
<stop offset="0.92" stop-color="#C10000"/>
<stop offset="0.98" stop-color="#9F0000"/>
<stop offset="1" stop-color="#8F0000"/>
</linearGradient>
<linearGradient id="paint8_linear_344_1312" x1="103.115" y1="24.2081" x2="67.2465" y2="80.4865" gradientUnits="userSpaceOnUse">
<stop stop-color="#FF0000"/>
<stop offset="0.66" stop-color="#FF0000"/>
<stop offset="0.73" stop-color="#FB0000"/>
<stop offset="0.79" stop-color="#F00000"/>
<stop offset="0.85" stop-color="#DC0000"/>
<stop offset="0.92" stop-color="#C10000"/>
<stop offset="0.98" stop-color="#9F0000"/>
<stop offset="1" stop-color="#8F0000"/>
</linearGradient>
<linearGradient id="paint9_linear_344_1312" x1="59.1668" y1="-8.15533" x2="73.4631" y2="59.1266" gradientUnits="userSpaceOnUse">
<stop stop-color="#FF0000"/>
<stop offset="0.7" stop-color="#FF0000"/>
<stop offset="0.75" stop-color="#FA0000"/>
<stop offset="0.81" stop-color="#EB0000"/>
<stop offset="0.88" stop-color="#D20000"/>
<stop offset="0.94" stop-color="#B00000"/>
<stop offset="1" stop-color="#8F0000"/>
</linearGradient>
<linearGradient id="paint10_linear_344_1312" x1="92.9773" y1="17.7475" x2="57.1088" y2="74.0245" gradientUnits="userSpaceOnUse">
<stop stop-color="#FF0000"/>
<stop offset="0.66" stop-color="#FF0000"/>
<stop offset="0.73" stop-color="#FB0000"/>
<stop offset="0.79" stop-color="#F00000"/>
<stop offset="0.85" stop-color="#DC0000"/>
<stop offset="0.92" stop-color="#C10000"/>
<stop offset="0.98" stop-color="#9F0000"/>
<stop offset="1" stop-color="#8F0000"/>
</linearGradient>
<linearGradient id="paint11_linear_344_1312" x1="103.107" y1="61.9353" x2="33.1554" y2="69.9467" gradientUnits="userSpaceOnUse">
<stop stop-color="#FF0000"/>
<stop offset="0.66" stop-color="#FF0000"/>
<stop offset="0.73" stop-color="#FB0000"/>
<stop offset="0.79" stop-color="#F00000"/>
<stop offset="0.85" stop-color="#DC0000"/>
<stop offset="0.92" stop-color="#C10000"/>
<stop offset="0.98" stop-color="#9F0000"/>
<stop offset="1" stop-color="#8F0000"/>
</linearGradient>
<linearGradient id="paint12_linear_344_1312" x1="90.0888" y1="15.9064" x2="54.2204" y2="72.1834" gradientUnits="userSpaceOnUse">
<stop stop-color="#FF0000"/>
<stop offset="0.66" stop-color="#FF0000"/>
<stop offset="0.73" stop-color="#FB0000"/>
<stop offset="0.79" stop-color="#F00000"/>
<stop offset="0.85" stop-color="#DC0000"/>
<stop offset="0.92" stop-color="#C10000"/>
<stop offset="0.98" stop-color="#9F0000"/>
<stop offset="1" stop-color="#8F0000"/>
</linearGradient>
<linearGradient id="paint13_linear_344_1312" x1="110.88" y1="29.1576" x2="75.0112" y2="85.4345" gradientUnits="userSpaceOnUse">
<stop stop-color="#FF0000"/>
<stop offset="0.66" stop-color="#FF0000"/>
<stop offset="0.73" stop-color="#FB0000"/>
<stop offset="0.79" stop-color="#F00000"/>
<stop offset="0.85" stop-color="#DC0000"/>
<stop offset="0.92" stop-color="#C10000"/>
<stop offset="0.98" stop-color="#9F0000"/>
<stop offset="1" stop-color="#8F0000"/>
</linearGradient>
</defs>
</svg>
