<svg width="19" height="22" viewBox="0 0 19 22" fill="none" xmlns="http://www.w3.org/2000/svg">
<path d="M16.2113 8.99928H17.221C17.4888 8.99928 17.7456 9.10566 17.935 9.29502C18.1244 9.48438 18.2307 9.74121 18.2307 10.009V20.1063C18.2307 20.3741 18.1244 20.6309 17.935 20.8203C17.7456 21.0096 17.4888 21.116 17.221 21.116H1.06539C0.797594 21.116 0.540766 21.0096 0.351406 20.8203C0.162046 20.6309 0.0556641 20.3741 0.0556641 20.1063L0.0556641 10.009C0.0556641 9.74121 0.162046 9.48438 0.351406 9.29502C0.540766 9.10566 0.797594 8.99928 1.06539 8.99928H2.07512V7.98955C2.07512 7.06136 2.25794 6.14225 2.61314 5.28471C2.96835 4.42717 3.48898 3.64799 4.14531 2.99166C4.80164 2.33533 5.58082 1.8147 6.43836 1.45949C7.2959 1.10429 8.21501 0.921467 9.1432 0.921467C10.0714 0.921467 10.9905 1.10429 11.848 1.45949C12.7056 1.8147 13.4848 2.33533 14.1411 2.99166C14.7974 3.64799 15.3181 4.42717 15.6733 5.28471C16.0285 6.14225 16.2113 7.06136 16.2113 7.98955V8.99928ZM2.07512 11.0187L2.07512 19.0965H16.2113V11.0187L2.07512 11.0187ZM8.13347 13.0382H10.1529L10.1529 17.0771H8.13347L8.13347 13.0382ZM14.1918 8.99928V7.98955C14.1918 6.65057 13.6599 5.36643 12.7131 4.41963C11.7663 3.47283 10.4822 2.94092 9.1432 2.94092C7.80422 2.94092 6.52008 3.47283 5.57328 4.41963C4.62648 5.36643 4.09457 6.65057 4.09457 7.98955L4.09457 8.99928H14.1918Z" fill="white"/>
</svg>
